<?xml version="1.0" encoding="UTF-8" standalone="no"?>
<svg
   version="1.1"
   id="Contours"
   x="0px"
   y="0px"
   width="431.19876"
   height="335.18994"
   mViewBox="0.000000 0.000000 440.996094 341.651398"
   xml:space="preserve"
   stroke="#000000"
   fill="none"
   stroke-linecap="round"
   stroke-linejoin="round"
   sodipodi:docname="logo.svg"
   xmlns:inkscape="http://www.inkscape.org/namespaces/inkscape"
   xmlns:sodipodi="http://sodipodi.sourceforge.net/DTD/sodipodi-0.dtd"
   xmlns="http://www.w3.org/2000/svg"
   xmlns:svg="http://www.w3.org/2000/svg"><defs
   id="defs33" /><sodipodi:namedview
   id="namedview31"
   pagecolor="#ffffff"
   bordercolor="#000000"
   borderopacity="0.25"
   inkscape:showpageshadow="2"
   inkscape:pageopacity="0.0"
   inkscape:pagecheckerboard="0"
   inkscape:deskcolor="#d1d1d1"
   showgrid="false" />
<desc
   id="desc18">
</desc>
<path
   d="m 372.1,114.93731 c 16.8,-11.9 27.3,-32.800002 25.1,-53.300002 -2.2,-20.4 -18.3,-39.2 -38.6,-42.7 -31.2,-5.4 -60.5,23.1 -92,19.2 -10.3,-1.3 -19.9,-6.1 -30.3,-7.6 -36.1,-5 -68,31.1 -104.2,27.4 -2.2,-0.2 -5.1,-2.3 -3.5,-3.9 37.2,1.7 66.3,-38.4 103.6,-37.6 13.9,0.2 27.1,6.3 41,6.4 23.6,0.2 43.8,-16.6999996 66.9,-21.4999996 19.4,-4 40.5,1.1 55.9,13.5999996 15.4,12.5 24.8,32 24.9,51.8 0.1,26.2 -15.2,50.400002 -35,67.400002 37.4,22.3 55.1,72.8 39.8,113.5 -15.3,40.8 -61.9,67.1 -104.8,59.2 -17.4,-3.2 -35.4,-11.4 -52.2,-5.8 -15.8,5.2 -25.7,21 -40.4,28.6 -18,9.4 -39.8,5 -59.6,0.4 -15.8,-3.6 -31.5,-7.2 -47.3,-10.8 19.1,-0.2 38.2,-0.5 57.3,-0.7 12,-0.1 24.4,-0.4 35.2,-5.6 14.3,-6.9 23.4,-21.5 36.4,-30.7 10.2,-7.1 22.8,-10.8 35.2,-10.1 14.4,0.7 28,7 42.3,9 31.3,4.4 64.8,-14.9 75.6,-44.7 10.8,-29.8 -3.6,-66.8 -32.2,-80.5 -7.3,-3.5 -16.4,-6.5 -18.7,-14.3 -1.7,-5.7 1.2,-11.9 5.3,-16.1 4.2,-4.3 9.5,-7.1 14.3,-10.6"
   fill="#000000"
   stroke="none"
   id="path20"
   style="fill:#ffffff;fill-opacity:1"
   inkscape:export-filename="../13668196/white.svg"
   inkscape:export-xdpi="96"
   inkscape:export-ydpi="96" />
<path
   d="m 8.1,220.73731 c -3.1,-0.1 -6.9,-0.7 -8.1,-3.5 17.4,-1.5 34.4,-7.6 48.7,-17.6 6.7,-4.7 12.7,-10.2 19.7,-14.4 22.5,-13.5 50.9,-11.7 76.6,-6.5 1.1,2.4 -2.9,3.7 -5.5,3.4 -15.5,-1.7 -31.8,-0.4 -45.7,6.7 -7.5,3.8 -14,9.1 -21.1,13.7 -19,12.4 -41.9,18.8 -64.6,18.2"
   fill="#000000"
   stroke="none"
   id="path22"
   style="fill:#ffffff;fill-opacity:1" />
<path
   d="m 161.8,90.537308 c 21.7,-10.9 48.5,-12.9 70.1,-1.8 -18.6,-3.2 -38.2,0.2 -54.7,9.3 -17.2,9.500002 -30.7,24.700002 -48.1,33.800002 -32.4,16.9 -71.7,9.4 -107.4,1.5 9.8,-0.6 19.5,-1.1 29.3,-1.6 21.3,-1.2 43.2,-2.5 62.6,-11.4 17.2,-7.9 31.3,-21.300002 48.2,-29.800002"
   fill="#000000"
   stroke="none"
   id="path24"
   style="fill:#ffffff;fill-opacity:1" />
<path
   d="m 174.4,244.23731 c -15.6,6.8 -33.6,3.7 -50.2,7.3 -15.1,3.4 -28.2,12.1 -42,19.1 -13.8,7 -29.7,12.3 -44.6,8.1 15,-2.8 29.2,-9 41.4,-18.1 12.2,-9 22.7,-21 37,-25.9 9.1,-3.2 19,-3.2 28.5,-5.1 23,-4.4 42.5,-19.1 63.6,-29.5 21,-10.4 47.7,-16.1 67,-2.7 -23.5,-3.2 -48.1,3.8 -66.4,18.8 -11.4,9.4 -20.8,22 -34.3,28"
   fill="#000000"
   stroke="none"
   id="path26"
   style="fill:#ffffff;fill-opacity:1" />
<path
   d="m 284.6,77.937308 c 13.7,16.5 9.3,44.700002 -8.8,56.200002 7.2,-15.4 9.4,-33 6.2,-49.700002 -1.9,-10 9.6,-17.8 19.8,-18.3 18.3,-0.9 36.1,13.5 39.4,31.6 3.3,18.000002 -7.9,37.600002 -25.1,44.200002 22.1,4.6 39.3,25.6 40.4,48.1 1.1,22.4 -13.4,44.6 -34,53.7 -20.6,9 -46,5.1 -63.6,-9 9.4,0 18.7,-1.6 27.5,-4.8 12.8,-4.6 24.8,-12.9 31.9,-24.6 7.1,-11.7 8.8,-27.1 2.6,-39.3 -6.2,-12.2 -21,-20 -34.2,-16.6 11.3,-6.8 22.3,-14.7 29.3,-25.9 7,-11.2 9.2,-26.200002 2.5,-37.500002 -6.7,-11.4 -23.6,-16.4 -33.9,-8.1"
   fill="#000000"
   stroke="none"
   id="path28"
   style="fill:#ffffff;fill-opacity:1" />

</svg>
